<svg width="75" height="88" viewBox="0 0 75 88" fill="none" xmlns="http://www.w3.org/2000/svg">
<path d="M25 6.25V0H50V6.25H25ZM34.375 52.8125H40.625V28.8542H34.375V52.8125ZM37.5 87.3958C32.3611 87.3958 27.5174 86.4063 22.9687 84.4271C18.4201 82.4479 14.4444 79.757 11.0417 76.3542C7.63889 72.9514 4.94792 68.9757 2.96875 64.4271C0.989584 59.8785 0 55.0347 0 49.8958C0 44.757 0.989584 39.9132 2.96875 35.3646C4.94792 30.816 7.63889 26.8403 11.0417 23.4375C14.4444 20.0347 18.4201 17.3438 22.9687 15.3646C27.5174 13.3854 32.3611 12.3958 37.5 12.3958C42.1528 12.3958 46.5278 13.1771 50.625 14.7396C54.7222 16.3021 58.3681 18.4722 61.5625 21.25L66.875 15.9375L71.25 20.3125L65.9375 25.625C68.4375 28.4028 70.5729 31.7708 72.3437 35.7292C74.1146 39.6875 75 44.4097 75 49.8958C75 55.0347 74.0104 59.8785 72.0312 64.4271C70.0521 68.9757 67.3611 72.9514 63.9583 76.3542C60.5556 79.757 56.5799 82.4479 52.0312 84.4271C47.4826 86.4063 42.6389 87.3958 37.5 87.3958ZM37.5 81.1458C46.1806 81.1458 53.559 78.1076 59.6354 72.0313C65.7118 65.9549 68.75 58.5764 68.75 49.8958C68.75 41.2153 65.7118 33.8368 59.6354 27.7604C53.559 21.684 46.1806 18.6458 37.5 18.6458C28.8194 18.6458 21.441 21.684 15.3646 27.7604C9.28819 33.8368 6.25 41.2153 6.25 49.8958C6.25 58.5764 9.28819 65.9549 15.3646 72.0313C21.441 78.1076 28.8194 81.1458 37.5 81.1458Z" fill="#A4D65E"/>
</svg>
