<svg width="36" height="36" viewBox="0 0 36 36" fill="none" xmlns="http://www.w3.org/2000/svg">
<path d="M20 36V32H24V36H20ZM16 32V22H20V32H16ZM32 26V18H36V26H32ZM28 18V14H32V18H28ZM4 22V18H8V22H4ZM0 18V14H4V18H0ZM18 4V0H22V4H18ZM2.5 9.5H9.5V2.5H2.5V9.5ZM1.5 12C1.06667 12 0.708333 11.8583 0.425 11.575C0.141667 11.2917 0 10.9333 0 10.5V1.5C0 1.06667 0.141667 0.708333 0.425 0.425C0.708333 0.141667 1.06667 0 1.5 0H10.5C10.9333 0 11.2917 0.141667 11.575 0.425C11.8583 0.708333 12 1.06667 12 1.5V10.5C12 10.9333 11.8583 11.2917 11.575 11.575C11.2917 11.8583 10.9333 12 10.5 12H1.5ZM2.5 33.5H9.5V26.5H2.5V33.5ZM1.5 36C1.06667 36 0.708333 35.8583 0.425 35.575C0.141667 35.2917 0 34.9333 0 34.5V25.5C0 25.0667 0.141667 24.7083 0.425 24.425C0.708333 24.1417 1.06667 24 1.5 24H10.5C10.9333 24 11.2917 24.1417 11.575 24.425C11.8583 24.7083 12 25.0667 12 25.5V34.5C12 34.9333 11.8583 35.2917 11.575 35.575C11.2917 35.8583 10.9333 36 10.5 36H1.5ZM26.5 9.5H33.5V2.5H26.5V9.5ZM25.5 12C25.0667 12 24.7083 11.8583 24.425 11.575C24.1417 11.2917 24 10.9333 24 10.5V1.5C24 1.06667 24.1417 0.708333 24.425 0.425C24.7083 0.141667 25.0667 0 25.5 0H34.5C34.9333 0 35.2917 0.141667 35.575 0.425C35.8583 0.708333 36 1.06667 36 1.5V10.5C36 10.9333 35.8583 11.2917 35.575 11.575C35.2917 11.8583 34.9333 12 34.5 12H25.5ZM28 36V30H24V26H32V32H36V36H28ZM20 22V18H28V22H20ZM12 22V18H8V14H20V18H16V22H12ZM14 12V4H18V8H22V12H14ZM4.5 7.5V4.5H7.5V7.5H4.5ZM4.5 31.5V28.5H7.5V31.5H4.5ZM28.5 7.5V4.5H31.5V7.5H28.5Z" fill="#781E77"/>
</svg>
