<svg width="38" height="40" viewBox="0 0 38 40" fill="none" xmlns="http://www.w3.org/2000/svg">
<path d="M24.8577 33C23.4333 33 22.2347 32.5333 21.262 31.6C20.2892 30.6667 19.8028 29.5167 19.8028 28.15C19.8028 26.7833 20.2892 25.6333 21.262 24.7C22.2347 23.7667 23.4333 23.3 24.8577 23.3C26.2822 23.3 27.4807 23.7667 28.4535 24.7C29.4263 25.6333 29.9127 26.7833 29.9127 28.15C29.9127 29.5167 29.4263 30.6667 28.4535 31.6C27.4807 32.5333 26.2822 33 24.8577 33ZM3.12676 40C2.29296 40 1.56338 39.7 0.938028 39.1C0.312676 38.5 0 37.8 0 37V6C0 5.2 0.312676 4.5 0.938028 3.9C1.56338 3.3 2.29296 3 3.12676 3H6.51408V1.6C6.51408 1.13333 6.67042 0.75 6.9831 0.45C7.29577 0.15 7.6953 0 8.18169 0C8.66807 0 9.07629 0.15 9.40634 0.45C9.73638 0.75 9.90141 1.13333 9.90141 1.6V3H27.6197V1.6C27.6197 1.13333 27.7761 0.75 28.0887 0.45C28.4014 0.15 28.8009 0 29.2873 0C29.7737 0 30.1819 0.15 30.512 0.45C30.842 0.75 31.007 1.13333 31.007 1.6V3H34.3944C35.2282 3 35.9577 3.3 36.5831 3.9C37.2084 4.5 37.5211 5.2 37.5211 6V37C37.5211 37.8 37.2084 38.5 36.5831 39.1C35.9577 39.7 35.2282 40 34.3944 40H3.12676ZM3.12676 37H34.3944V15.5H3.12676V37ZM3.12676 12.5H34.3944V6H3.12676V12.5Z" fill="#781E77"/>
</svg>
