<svg width="24" height="30" viewBox="0 0 24 30" fill="none" xmlns="http://www.w3.org/2000/svg">
<path d="M0 25.5V23.25H3.14999V11.775C3.14999 9.67498 3.76874 7.80624 5.00624 6.16874C6.24374 4.53124 7.87499 3.49999 9.89998 3.07499V1.9875C9.89998 1.4125 10.1062 0.937498 10.5187 0.562499C10.9312 0.1875 11.425 0 12 0C12.575 0 13.0687 0.1875 13.4812 0.562499C13.8937 0.937498 14.1 1.4125 14.1 1.9875V3.07499C16.125 3.49999 17.7625 4.53124 19.0125 6.16874C20.2625 7.80624 20.8875 9.67498 20.8875 11.775V23.25H24V25.5H0ZM12 29.9999C11.2 29.9999 10.5 29.7062 9.89998 29.1187C9.29998 28.5312 8.99998 27.825 8.99998 27H15C15 27.825 14.7062 28.5312 14.1187 29.1187C13.5312 29.7062 12.825 29.9999 12 29.9999ZM5.39999 23.25H18.6375V11.775C18.6375 9.92498 18 8.34998 16.725 7.04999C15.45 5.74999 13.8875 5.09999 12.0375 5.09999C10.1875 5.09999 8.61873 5.74999 7.33124 7.04999C6.04374 8.34998 5.39999 9.92498 5.39999 11.775V23.25Z" fill="#A4D65E"/>
</svg>
