<svg width="26" height="25" viewBox="0 0 26 25" fill="none" xmlns="http://www.w3.org/2000/svg">
<path d="M2.17734 19.5961V22.6379H23.8227V19.5961H2.17734ZM2.17734 24.8153C1.57964 24.8153 1.06732 24.6018 0.640394 24.1749C0.213465 23.7479 0 23.2356 0 22.6379V7.39655C0 6.79885 0.213465 6.28654 0.640394 5.85961C1.06732 5.43268 1.57964 5.21921 2.17734 5.21921H5.92365C5.83826 5.02709 5.75821 4.78695 5.6835 4.49877C5.60879 4.21059 5.57143 3.9491 5.57143 3.71429C5.57143 2.68966 5.93432 1.81445 6.6601 1.08867C7.38588 0.36289 8.25041 0 9.25369 0C9.91543 0 10.5291 0.165435 11.0948 0.496305C11.6605 0.827176 12.1141 1.25944 12.4557 1.7931L13.032 2.65764L13.5764 1.7931C13.9392 1.2381 14.3875 0.800493 14.9212 0.480296C15.4548 0.160099 16.0419 0 16.6823 0C17.7282 0 18.6141 0.357553 19.3399 1.07266C20.0657 1.78777 20.4286 2.66831 20.4286 3.71429C20.4286 3.9491 20.4019 4.18391 20.3485 4.41872C20.2952 4.65353 20.2151 4.92036 20.1084 5.21921H23.8227C24.4204 5.21921 24.9327 5.43268 25.3596 5.85961C25.7865 6.28654 26 6.79885 26 7.39655V22.6379C26 23.2356 25.7865 23.7479 25.3596 24.1749C24.9327 24.6018 24.4204 24.8153 23.8227 24.8153H2.17734ZM2.17734 16.0099H23.8227V7.39655H16.0739L18.6034 10.9187C18.7529 11.1535 18.8009 11.399 18.7475 11.6552C18.6942 11.9113 18.5714 12.1355 18.3793 12.3276C18.1445 12.4984 17.8883 12.5677 17.6108 12.5357C17.3333 12.5037 17.1092 12.3703 16.9384 12.1355L13 6.59606L8.99754 12.1355C8.82676 12.3703 8.60263 12.509 8.32512 12.5517C8.04762 12.5944 7.82348 12.5197 7.65271 12.3276C7.4179 12.1568 7.28448 11.9433 7.25246 11.6872C7.22044 11.431 7.27915 11.1749 7.42857 10.9187L9.92611 7.39655H2.17734V16.0099ZM9.28572 5.41133C9.75534 5.41133 10.1556 5.2459 10.4865 4.91502C10.8173 4.58415 10.9828 4.18391 10.9828 3.71429C10.9828 3.24466 10.8173 2.84442 10.4865 2.51355C10.1556 2.18268 9.75534 2.01724 9.28572 2.01724C8.81609 2.01724 8.41585 2.18268 8.08498 2.51355C7.75411 2.84442 7.58867 3.24466 7.58867 3.71429C7.58867 4.18391 7.75411 4.58415 8.08498 4.91502C8.41585 5.2459 8.81609 5.41133 9.28572 5.41133ZM16.6823 5.41133C17.1732 5.41133 17.5842 5.2459 17.915 4.91502C18.2459 4.58415 18.4113 4.18391 18.4113 3.71429C18.4113 3.24466 18.2459 2.84442 17.915 2.51355C17.5842 2.18268 17.1732 2.01724 16.6823 2.01724C16.234 2.01724 15.8444 2.18268 15.5135 2.51355C15.1827 2.84442 15.0172 3.24466 15.0172 3.71429C15.0172 4.18391 15.1827 4.58415 15.5135 4.91502C15.8444 5.2459 16.234 5.41133 16.6823 5.41133Z" fill="#781E77"/>
</svg>
