<svg width="31" height="15" viewBox="0 0 31 15" fill="none" xmlns="http://www.w3.org/2000/svg">
<path d="M13.3709 9.70878C12.9734 9.70878 12.6328 9.56684 12.3489 9.28296C12.065 8.99907 11.9231 8.65841 11.9231 8.26098V1.4478C11.9231 1.05037 12.065 0.709706 12.3489 0.425824C12.6328 0.141941 12.9734 0 13.3709 0H18.4807C18.8782 0 19.2188 0.141941 19.5027 0.425824C19.7866 0.709706 19.9285 1.05037 19.9285 1.4478V8.26098C19.9285 8.65841 19.7866 8.99907 19.5027 9.28296C19.2188 9.56684 18.8782 9.70878 18.4807 9.70878H13.3709ZM13.967 7.66482H17.8846V2.04395H13.967V7.66482ZM1.4478 9.70878C1.05036 9.70878 0.709706 9.56684 0.425824 9.28296C0.141941 8.99907 0 8.65841 0 8.26098V1.4478C0 1.05037 0.141941 0.709706 0.425824 0.425824C0.709706 0.141941 1.05036 0 1.4478 0H6.55768C6.95512 0 7.29578 0.141941 7.57966 0.425824C7.86354 0.709706 8.00548 1.05037 8.00548 1.4478V1.87362C8.00548 2.15751 7.90612 2.39881 7.70741 2.59752C7.50869 2.79624 7.26739 2.8956 6.98351 2.8956C6.72801 2.8956 6.508 2.81753 6.32348 2.6614C6.13896 2.50526 6.01831 2.29945 5.96153 2.04395H2.04395V7.66482H5.96153C6.01831 7.40933 6.13896 7.20352 6.32348 7.04738C6.508 6.89125 6.72801 6.81318 6.98351 6.81318C7.26739 6.81318 7.50869 6.91254 7.70741 7.11125C7.90612 7.30997 8.00548 7.55127 8.00548 7.83515V8.26098C8.00548 8.65841 7.86354 8.99907 7.57966 9.28296C7.29578 9.56684 6.95512 9.70878 6.55768 9.70878H1.4478ZM25.1236 14.8187C24.7545 14.8187 24.4494 14.698 24.2081 14.4567C23.9668 14.2154 23.8461 13.9102 23.8461 13.5412V10.8159C23.8461 10.4185 23.9881 10.0778 24.2719 9.79394C24.5558 9.51006 24.8965 9.36812 25.2939 9.36812H28.956V7.15384H24.8681C24.5842 7.15384 24.3429 7.05448 24.1442 6.85576C23.9455 6.65704 23.8461 6.41574 23.8461 6.13186C23.8461 5.84798 23.9455 5.60668 24.1442 5.40796C24.3429 5.20924 24.5842 5.10988 24.8681 5.10988H29.5522C29.9496 5.10988 30.2903 5.25182 30.5741 5.53571C30.858 5.81959 31 6.16025 31 6.55768V9.11263C31 9.51006 30.858 9.85072 30.5741 10.1346C30.2903 10.4185 29.9496 10.5604 29.5522 10.5604H25.8901V12.7747H29.978C30.2619 12.7747 30.5032 12.8741 30.7019 13.0728C30.9006 13.2715 31 13.5128 31 13.7967C31 14.0806 30.9006 14.3219 30.7019 14.5206C30.5032 14.7193 30.2619 14.8187 29.978 14.8187H25.1236Z" fill="#781E77"/>
</svg>
