<svg width="25" height="32" viewBox="0 0 25 32" fill="none" xmlns="http://www.w3.org/2000/svg">
<path d="M6.84028 28.8455H18.1597L19.8264 21.4236H5.17361L6.84028 28.8455ZM6.84028 31.1892C6.37732 31.1892 5.95486 31.0265 5.57292 30.701C5.19097 30.3754 4.94213 29.9523 4.82639 29.4314L3.02083 21.4236H21.9792L20.1736 29.4314C20.0579 29.9523 19.809 30.3754 19.4271 30.701C19.0451 31.0265 18.6227 31.1892 18.1597 31.1892H6.84028ZM2.08333 19.0799H22.9167V15.1736H2.08333V19.0799ZM4.93056 0.0173611C6.8287 0.381944 8.54167 1.47569 10.0694 3.29861C11.5972 5.12153 12.4074 7.11372 12.5 9.27517C12.6157 7.1658 13.4375 5.19314 14.9653 3.35721C16.4931 1.52127 18.1944 0.421007 20.0694 0.0564238C20.2546 0.00434042 20.4225 0.0629341 20.5729 0.232205C20.7234 0.401476 20.7755 0.590278 20.7292 0.798611C20.4514 2.75174 19.6065 4.53559 18.1944 6.15017C16.7824 7.76476 15.2315 8.75434 13.5417 9.11892V12.8299H23.9583C24.2593 12.8299 24.5081 12.9405 24.7049 13.1619C24.9016 13.3832 25 13.6632 25 14.0017V19.0799C25 19.7309 24.7975 20.2843 24.3924 20.74C23.9873 21.1957 23.4954 21.4236 22.9167 21.4236H2.08333C1.50463 21.4236 1.01273 21.1957 0.607639 20.74C0.202546 20.2843 0 19.7309 0 19.0799V14.0017C0 13.6632 0.0983798 13.3832 0.295139 13.1619C0.491898 12.9405 0.740741 12.8299 1.04167 12.8299H11.4583V9.11892C9.76852 8.75434 8.21759 7.76476 6.80556 6.15017C5.39352 4.53559 4.54861 2.75174 4.27083 0.798611C4.22454 0.590278 4.27662 0.394965 4.42708 0.212674C4.57755 0.0303819 4.74537 -0.0347222 4.93056 0.0173611Z" fill="#781E77"/>
</svg>
