<svg width="36" height="44" viewBox="0 0 36 44" fill="none" xmlns="http://www.w3.org/2000/svg">
<path d="M17.6734 21.6591C18.7572 21.6591 19.6925 21.2658 20.4791 20.4791C21.2658 19.6925 21.6591 18.7572 21.6591 17.6734C21.6591 16.5896 21.2658 15.6543 20.4791 14.8677C19.6925 14.081 18.7572 13.6877 17.6734 13.6877C16.5896 13.6877 15.6543 14.081 14.8677 14.8677C14.081 15.6543 13.6877 16.5896 13.6877 17.6734C13.6877 18.7572 14.081 19.6925 14.8677 20.4791C15.6543 21.2658 16.5896 21.6591 17.6734 21.6591ZM17.6734 44C11.7648 38.9654 7.34207 34.298 4.40524 29.9976C1.46841 25.6972 0 21.729 0 18.093C0 12.5689 1.77433 8.17242 5.323 4.90345C8.87167 1.63448 12.9885 0 17.6734 0C22.3584 0 26.4752 1.63448 30.0238 4.90345C33.5725 8.17242 35.3468 12.5689 35.3468 18.093C35.3468 21.729 33.8784 25.6972 30.9416 29.9976C28.0048 34.298 23.582 38.9654 17.6734 44Z" fill="#781E77"/>
</svg>
