<svg width="80" height="80" viewBox="0 0 80 80" fill="none" xmlns="http://www.w3.org/2000/svg">
<path d="M34.1 58.2L62.4 29.9L57.8 25.4L34.1 49.1L22.1 37.1L17.6 41.6L34.1 58.2ZM40 80C34.5333 80 29.3667 78.95 24.5 76.85C19.6333 74.75 15.3833 71.8833 11.75 68.25C8.11667 64.6167 5.25 60.3667 3.15 55.5C1.05 50.6333 0 45.4667 0 40C0 34.4667 1.05 29.2667 3.15 24.4C5.25 19.5333 8.11667 15.3 11.75 11.7C15.3833 8.1 19.6333 5.25 24.5 3.15C29.3667 1.05 34.5333 0 40 0C45.5333 0 50.7333 1.05 55.6 3.15C60.4667 5.25 64.7 8.1 68.3 11.7C71.9 15.3 74.75 19.5333 76.85 24.4C78.95 29.2667 80 34.4667 80 40C80 45.4667 78.95 50.6333 76.85 55.5C74.75 60.3667 71.9 64.6167 68.3 68.25C64.7 71.8833 60.4667 74.75 55.6 76.85C50.7333 78.95 45.5333 80 40 80Z" fill="#A4D65E"/>
</svg>
