<svg width="20" height="25" viewBox="0 0 20 25" fill="none" xmlns="http://www.w3.org/2000/svg">
<path d="M2.1875 25V23.125H9.0625V17.5H6.25C4.52083 17.5 3.04688 16.8906 1.82813 15.6719C0.609375 14.4531 0 12.9792 0 11.25C0 10 0.34375 8.84896 1.03125 7.79688C1.71875 6.74479 2.64583 5.97917 3.8125 5.5C4 3.9375 4.68229 2.63021 5.85938 1.57812C7.03646 0.526042 8.41667 0 10 0C11.5833 0 12.9635 0.526042 14.1406 1.57812C15.3177 2.63021 16 3.9375 16.1875 5.5C17.3542 5.97917 18.2812 6.74479 18.9688 7.79688C19.6562 8.84896 20 10 20 11.25C20 12.9792 19.3906 14.4531 18.1719 15.6719C16.9531 16.8906 15.4792 17.5 13.75 17.5H10.9375V23.125H18.125V25H2.1875ZM6.25 15.625H13.75C14.9583 15.625 15.9896 15.1979 16.8438 14.3438C17.6979 13.4896 18.125 12.4583 18.125 11.25C18.125 10.375 17.875 9.57812 17.375 8.85938C16.875 8.14062 16.2292 7.60417 15.4375 7.25L14.4375 6.8125L14.3125 5.71875C14.1667 4.61458 13.6875 3.69792 12.875 2.96875C12.0625 2.23958 11.1042 1.875 10 1.875C8.89583 1.875 7.9375 2.23958 7.125 2.96875C6.3125 3.69792 5.83333 4.61458 5.6875 5.71875L5.5625 6.8125L4.5625 7.25C3.77083 7.60417 3.125 8.14062 2.625 8.85938C2.125 9.57812 1.875 10.375 1.875 11.25C1.875 12.4583 2.30208 13.4896 3.15625 14.3438C4.01042 15.1979 5.04167 15.625 6.25 15.625Z" fill="#781E77"/>
</svg>
