<svg width="18" height="23" viewBox="0 0 18 23" fill="none" xmlns="http://www.w3.org/2000/svg">
<path d="M3.13056 18.4319C2.875 18.4319 2.65139 18.3361 2.45972 18.1444C2.26806 17.9528 2.17222 17.7292 2.17222 17.4736C2.17222 17.2181 2.26806 16.9944 2.45972 16.8028C2.65139 16.6111 2.875 16.5153 3.13056 16.5153C3.38611 16.5153 3.60972 16.6111 3.80139 16.8028C3.99306 16.9944 4.08889 17.2181 4.08889 17.4736C4.08889 17.7292 3.99306 17.9528 3.80139 18.1444C3.60972 18.3361 3.38611 18.4319 3.13056 18.4319ZM8.94444 18.4319C8.68889 18.4319 8.46528 18.3361 8.27361 18.1444C8.08194 17.9528 7.98611 17.7292 7.98611 17.4736C7.98611 17.2181 8.08194 16.9944 8.27361 16.8028C8.46528 16.6111 8.68889 16.5153 8.94444 16.5153C9.2 16.5153 9.42361 16.6111 9.61528 16.8028C9.80694 16.9944 9.90278 17.2181 9.90278 17.4736C9.90278 17.7292 9.80694 17.9528 9.61528 18.1444C9.42361 18.3361 9.2 18.4319 8.94444 18.4319ZM14.7583 18.4319C14.5028 18.4319 14.2792 18.3361 14.0875 18.1444C13.8958 17.9528 13.8 17.7292 13.8 17.4736C13.8 17.2181 13.8958 16.9944 14.0875 16.8028C14.2792 16.6111 14.5028 16.5153 14.7583 16.5153C15.0139 16.5153 15.2375 16.6111 15.4292 16.8028C15.6208 16.9944 15.7167 17.2181 15.7167 17.4736C15.7167 17.7292 15.6208 17.9528 15.4292 18.1444C15.2375 18.3361 15.0139 18.4319 14.7583 18.4319ZM0.958333 13.6403C0.681482 13.6403 0.452546 13.5498 0.271528 13.3687C0.0905094 13.1877 0 12.9588 0 12.6819V11.7236C0 9.44491 0.771991 7.4537 2.31597 5.75C3.85995 4.0463 5.75 3.07731 7.98611 2.84306V0.958333C7.98611 0.681482 8.07662 0.452546 8.25764 0.271528C8.43866 0.0905094 8.66759 0 8.94444 0C9.2213 0 9.45023 0.0905094 9.63125 0.271528C9.81227 0.452546 9.90278 0.681482 9.90278 0.958333V2.84306C12.1389 3.07731 14.0289 4.0463 15.5729 5.75C17.1169 7.4537 17.8889 9.44491 17.8889 11.7236V12.6819C17.8889 12.9588 17.7984 13.1877 17.6174 13.3687C17.4363 13.5498 17.2074 13.6403 16.9306 13.6403H0.958333ZM1.91667 11.7236H15.9722C15.9722 9.78565 15.2854 8.12986 13.9118 6.75625C12.5382 5.38264 10.8824 4.69583 8.94444 4.69583C7.00648 4.69583 5.35069 5.38264 3.97708 6.75625C2.60347 8.12986 1.91667 9.78565 1.91667 11.7236ZM3.13056 23C2.875 23 2.65139 22.9042 2.45972 22.7125C2.26806 22.5208 2.17222 22.2972 2.17222 22.0417C2.17222 21.7861 2.26806 21.5625 2.45972 21.3708C2.65139 21.1792 2.875 21.0833 3.13056 21.0833C3.38611 21.0833 3.60972 21.1792 3.80139 21.3708C3.99306 21.5625 4.08889 21.7861 4.08889 22.0417C4.08889 22.2972 3.99306 22.5208 3.80139 22.7125C3.60972 22.9042 3.38611 23 3.13056 23ZM8.94444 23C8.68889 23 8.46528 22.9042 8.27361 22.7125C8.08194 22.5208 7.98611 22.2972 7.98611 22.0417C7.98611 21.7861 8.08194 21.5625 8.27361 21.3708C8.46528 21.1792 8.68889 21.0833 8.94444 21.0833C9.2 21.0833 9.42361 21.1792 9.61528 21.3708C9.80694 21.5625 9.90278 21.7861 9.90278 22.0417C9.90278 22.2972 9.80694 22.5208 9.61528 22.7125C9.42361 22.9042 9.2 23 8.94444 23ZM14.7583 23C14.5028 23 14.2792 22.9042 14.0875 22.7125C13.8958 22.5208 13.8 22.2972 13.8 22.0417C13.8 21.7861 13.8958 21.5625 14.0875 21.3708C14.2792 21.1792 14.5028 21.0833 14.7583 21.0833C15.0139 21.0833 15.2375 21.1792 15.4292 21.3708C15.6208 21.5625 15.7167 21.7861 15.7167 22.0417C15.7167 22.2972 15.6208 22.5208 15.4292 22.7125C15.2375 22.9042 15.0139 23 14.7583 23Z" fill="#781E77"/>
</svg>
