<svg xmlns="http://www.w3.org/2000/svg" width="579" height="370" fill="none"><path fill="#fff" d="M118.07 43.33c-31.32 0-55.43 24.77-55.43 55.61 0 32.2 21.18 55.61 52.5 55.61a43.63 43.63 0 0 0 31.09-13.28v11.93h26.36V96.47c0-29.5-22.98-53.14-54.52-53.14Zm-.45 85.1c-16.45 0-27.94-11.93-27.94-29.49s11.49-29.72 27.93-29.72c16.45 0 27.95 12.16 27.95 29.72s-11.5 29.5-27.95 29.5Zm68.72 24.77h27.26V41.98l-27.26 6.75V153.2ZM26.36 56.4V45.8H0v107.4h27.04V96.46c0-14.87 6.53-26.35 26.36-26.35h8.11V44.45h-5.86c-11.71 0-20.28 3.38-29.29 11.94Zm253.03 46.38L317.46 69V45.8H226v25h52.72l-33.8 29.5 22.54 26.11c-29.3 1.8-47.32 22.51-47.32 47.28 0 27.92 22.76 49.31 50.7 49.31 27.7 0 50.92-21.39 50.92-49.3 0-14.87-4.06-25.9-13.3-36.7l-29.05-34.23h-.01ZM270.6 198c-14.42 0-24.11-10.58-24.11-24.55 0-13.95 9.69-24.54 24.1-24.54 14.2 0 24.12 10.59 24.12 24.54 0 13.97-9.92 24.55-24.12 24.55ZM374.69 43.33c-32 0-53.85 25-53.85 55.61 0 30.85 22.09 55.61 53.85 55.61 25.69 0 43.26-14.18 50.02-34.9h-27.94c-3.83 6.53-9.9 10.14-20.5 10.14-16 0-25.23-8.1-27.94-21.84h79.31c.23-2.7.45-4.73.45-7.43-.02-37.15-23.9-57.19-53.41-57.19h.01Zm-26.14 43.23c3.83-13.29 13.96-19.59 26.36-19.59 12.84 0 22.3 5.63 25.68 19.59h-52.04Zm148.72-43.23c-11.72 0-21.18 4.05-30.2 12.61V45.81h-26.36v107.4h27.04V96.23c0-14.86 6.54-27.24 24.79-27.24 16.9 0 21.63 12.38 21.63 27.24v56.96H541V87.91c0-24.54-14.64-44.58-43.71-44.58h-.02ZM223.29 0l-37.63 17.11v18.92l37.63-11.71V0Z"/><path fill="#A4D65E" d="M347.4 216.67c.43 3.16 1.3 5.52 2.57 7.08 2.35 2.84 6.36 4.27 12.05 4.27 3.4 0 6.17-.38 8.3-1.13 4.03-1.44 6.04-4.1 6.04-8.01 0-2.29-1-4.05-3-5.3-2-1.22-5.14-2.3-9.42-3.24l-7.31-1.64c-7.19-1.62-12.16-3.39-14.9-5.3-4.66-3.18-7-8.17-7-14.95 0-6.18 2.26-11.32 6.76-15.42s11.1-6.14 19.83-6.14c7.28 0 13.48 1.94 18.6 5.81 5.16 3.85 7.87 9.44 8.12 16.78h-13.88c-.25-4.15-2.06-7.1-5.44-8.85-2.25-1.16-5.04-1.74-8.39-1.74-3.72 0-6.68.75-8.9 2.25a7.16 7.16 0 0 0-3.33 6.28c0 2.47 1.1 4.31 3.28 5.53 1.4.82 4.4 1.77 9 2.86l11.9 2.86c5.23 1.25 9.16 2.92 11.82 5.02 4.12 3.25 6.19 7.95 6.19 14.1 0 6.32-2.43 11.57-7.27 15.76-4.81 4.15-11.62 6.23-20.44 6.23-9 0-16.07-2.05-21.23-6.14-5.16-4.12-7.74-9.78-7.74-16.97h13.79ZM450.27 185.78c2.25 0 4.47.44 6.66 1.31a14.85 14.85 0 0 1 8.86 11.16c.3 1.72.46 4.23.46 7.55l-.09 32.2h-13.69v-32.53c0-1.94-.31-3.53-.94-4.78-1.18-2.38-3.37-3.56-6.56-3.56-3.69 0-6.23 1.53-7.64 4.59a14.42 14.42 0 0 0-1.08 5.86V238H422.8v-30.42c0-3.03-.31-5.24-.94-6.61-1.12-2.47-3.32-3.7-6.6-3.7-3.82 0-6.38 1.23-7.7 3.7-.71 1.4-1.07 3.5-1.07 6.28V238h-13.55v-51h12.99v7.45c1.65-2.65 3.21-4.54 4.68-5.67 2.6-2 5.96-3 10.08-3 3.9 0 7.06.86 9.47 2.58a15 15 0 0 1 4.4 6.14c1.76-3 3.93-5.2 6.52-6.6a19.87 19.87 0 0 1 9.19-2.12ZM500.03 213.16c-.84.53-1.7.97-2.57 1.3-.85.32-2.02.62-3.52.9l-3 .56c-2.81.5-4.83 1.11-6.05 1.83-2.06 1.22-3.1 3.1-3.1 5.67 0 2.28.63 3.94 1.88 4.97 1.29 1 2.83 1.5 4.64 1.5 2.88 0 5.52-.84 7.93-2.53 2.43-1.69 3.7-4.77 3.8-9.24v-4.96Zm-8.1-6.24c2.46-.31 4.23-.7 5.3-1.17 1.9-.81 2.85-2.08 2.85-3.8 0-2.1-.73-3.53-2.2-4.3-1.44-.82-3.56-1.23-6.38-1.23-3.15 0-5.39.78-6.7 2.35a9.75 9.75 0 0 0-1.88 4.68h-12.89c.29-4.47 1.54-8.14 3.75-11.01 3.54-4.5 9.6-6.75 18.2-6.75 5.58 0 10.55 1.1 14.9 3.33 4.34 2.21 6.51 6.4 6.51 12.56v23.44c0 1.62.03 3.59.1 5.9.1 1.75.36 2.94.8 3.56.43.63 1.09 1.15 1.96 1.55V238h-14.53c-.4-1.03-.69-2-.84-2.9-.16-.91-.28-1.94-.38-3.1-1.84 2-3.97 3.7-6.37 5.1a19.17 19.17 0 0 1-9.75 2.5c-4.63 0-8.46-1.32-11.49-3.94-3-2.66-4.5-6.41-4.5-11.25 0-6.28 2.43-10.83 7.27-13.64 2.65-1.54 6.56-2.63 11.72-3.29l4.54-.56ZM546.33 185.69c.25 0 .45.01.6.04l1.18.05v13.69a35.92 35.92 0 0 0-3.84-.24c-5.38 0-8.99 1.75-10.83 5.25-1.03 1.97-1.55 5-1.55 9.1V238h-13.45v-51.1h12.75v8.91c2.06-3.4 3.86-5.73 5.39-6.98 2.5-2.1 5.75-3.14 9.75-3.14Z"/><path fill="#A4D65E" d="M544.02 196.9v-9.53h7.12v-14.25h13.22v14.25h8.3v9.52h-8.3v27c0 2.1.26 3.4.8 3.94.53.5 2.15.75 4.87.75h1.27l1.36-.1v9.99l-6.33.23c-6.31.22-10.63-.87-12.94-3.28-1.5-1.53-2.25-3.89-2.25-7.08V196.9h-7.12ZM260.68 326.67c.44 3.16 1.3 5.52 2.58 7.08 2.34 2.84 6.36 4.27 12.05 4.27 3.4 0 6.17-.38 8.3-1.13 4.02-1.44 6.04-4.1 6.04-8.01 0-2.29-1-4.05-3-5.3-2-1.22-5.14-2.3-9.42-3.24l-7.31-1.64c-7.2-1.62-12.16-3.39-14.91-5.3-4.66-3.18-6.99-8.17-6.99-14.95 0-6.18 2.25-11.32 6.75-15.42s11.11-6.14 19.83-6.14c7.28 0 13.49 1.94 18.61 5.81 5.16 3.85 7.86 9.44 8.11 16.78h-13.87c-.25-4.15-2.07-7.1-5.44-8.86-2.25-1.15-5.05-1.73-8.4-1.73-3.71 0-6.68.75-8.9 2.25a7.16 7.16 0 0 0-3.33 6.28c0 2.47 1.1 4.31 3.29 5.53 1.4.82 4.4 1.77 9 2.86l11.9 2.86c5.22 1.25 9.16 2.92 11.81 5.02 4.13 3.25 6.2 7.95 6.2 14.1 0 6.32-2.43 11.57-7.27 15.76-4.82 4.15-11.63 6.23-20.44 6.23-9 0-16.08-2.05-21.24-6.14-5.15-4.12-7.73-9.78-7.73-16.97h13.78Z"/><path fill="#A4D65E" d="M328.12 338.16c4.6 0 7.86-1.97 9.8-5.91 1.24-2.6 1.87-5.88 1.87-9.84 0-3.13-.53-5.93-1.6-8.4-1.9-4.43-5.25-6.65-10.03-6.65-3.37 0-6.09 1.3-8.15 3.89-2.03 2.6-3.05 6.53-3.05 11.81 0 3.53.47 6.42 1.4 8.67 1.76 4.29 5 6.43 9.76 6.43Zm-3.38-42.57c4.25 0 7.69 1.05 10.31 3.14 1.54 1.2 3.1 3.14 4.7 5.86V297h12.88v71.25h-13.22v-26.58c-1 2.06-2.72 3.9-5.15 5.53-2.4 1.6-5.7 2.4-9.9 2.4-5.9 0-10.93-2.37-15.09-7.08-4.15-4.72-6.23-11.02-6.23-18.9 0-8.5 2.08-15.3 6.23-20.39 4.2-5.09 9.35-7.64 15.47-7.64ZM371.74 296.9v30.8c0 2.9.34 5.1 1.03 6.57 1.22 2.59 3.61 3.89 7.17 3.89 4.57 0 7.7-1.85 9.38-5.54.87-2 1.31-4.64 1.31-7.92v-27.8h13.55V348h-12.99v-7.22c-.12.16-.43.63-.93 1.4a9.4 9.4 0 0 1-1.78 2.07 18.53 18.53 0 0 1-6.1 3.84 20.49 20.49 0 0 1-6.84 1.04c-7.56 0-12.66-2.72-15.28-8.16-1.47-3-2.2-7.42-2.2-13.27v-30.8h13.68ZM438.57 323.16c-.85.53-1.7.96-2.58 1.3-.84.32-2.02.62-3.52.9l-3 .56c-2.8.5-4.82 1.11-6.04 1.83-2.07 1.22-3.1 3.1-3.1 5.67 0 2.28.63 3.94 1.88 4.97 1.28 1 2.83 1.5 4.64 1.5 2.87 0 5.51-.84 7.92-2.53 2.44-1.69 3.7-4.77 3.8-9.24v-4.96Zm-8.11-6.24c2.47-.31 4.23-.7 5.3-1.17 1.9-.81 2.85-2.08 2.85-3.8 0-2.1-.73-3.53-2.2-4.3-1.44-.82-3.56-1.23-6.37-1.23-3.16 0-5.4.78-6.7 2.35a9.75 9.75 0 0 0-1.88 4.68h-12.9c.29-4.47 1.54-8.14 3.76-11.01 3.53-4.5 9.6-6.75 18.19-6.75 5.59 0 10.56 1.1 14.9 3.33 4.34 2.21 6.52 6.4 6.52 12.56v23.44c0 1.62.03 3.59.1 5.9.08 1.75.35 2.94.79 3.56.44.63 1.1 1.14 1.97 1.55V348h-14.54c-.4-1.03-.68-2-.84-2.9-.16-.91-.28-1.94-.37-3.1a27.4 27.4 0 0 1-6.38 5.1 19.17 19.17 0 0 1-9.75 2.5c-4.62 0-8.45-1.32-11.48-3.94-3-2.66-4.5-6.41-4.5-11.25 0-6.29 2.42-10.83 7.26-13.64 2.66-1.54 6.56-2.63 11.72-3.29l4.55-.56ZM484.86 295.69c.25 0 .46.01.61.04l1.17.05v13.69a35.8 35.8 0 0 0-3.84-.24c-5.37 0-8.98 1.75-10.83 5.25-1.03 1.97-1.54 5-1.54 9.1V348h-13.46v-51.1h12.75v8.91c2.06-3.4 3.86-5.73 5.4-6.98 2.5-2.1 5.74-3.14 9.74-3.14Z"/><path fill="#A4D65E" d="M507.96 306.56c-3.1 0-5.5.97-7.22 2.9-1.7 1.95-2.75 4.57-3.2 7.88h20.78c-.22-3.53-1.3-6.2-3.24-8.01a9.85 9.85 0 0 0-7.12-2.77Zm0-11.01c4.25 0 8.07.8 11.48 2.39 3.4 1.6 6.22 4.1 8.44 7.54 2 3.04 3.3 6.55 3.89 10.55.34 2.35.48 5.72.42 10.13h-34.97c.19 5.12 1.8 8.71 4.83 10.78a11.38 11.38 0 0 0 6.66 1.92c2.75 0 4.98-.78 6.7-2.34.94-.85 1.76-2.02 2.48-3.52h13.64c-.34 3.03-1.92 6.1-4.73 9.23-4.38 4.97-10.5 7.46-18.38 7.46a25.9 25.9 0 0 1-17.2-6.28c-4.97-4.2-7.45-11-7.45-20.44 0-8.85 2.23-15.63 6.7-20.35 4.5-4.71 10.33-7.07 17.49-7.07Z"/><path fill="#A4D65E" d="M544.92 331.69c.28 2.37.9 4.06 1.83 5.06 1.66 1.78 4.72 2.67 9.19 2.67 2.62 0 4.7-.39 6.23-1.17 1.57-.78 2.35-1.95 2.35-3.52a3.8 3.8 0 0 0-1.88-3.42c-1.25-.78-5.89-2.12-13.92-4.03-5.78-1.44-9.86-3.23-12.23-5.39-2.38-2.12-3.57-5.19-3.57-9.19 0-4.72 1.85-8.76 5.53-12.14 3.72-3.4 8.94-5.1 15.66-5.1 6.38 0 11.56 1.27 15.56 3.84 4.03 2.53 6.35 6.92 6.94 13.17h-13.36a7.9 7.9 0 0 0-1.45-4.08c-1.47-1.81-3.97-2.72-7.5-2.72-2.9 0-4.99.45-6.24 1.36-1.21.9-1.82 1.97-1.82 3.19 0 1.53.65 2.64 1.96 3.33 1.32.72 5.96 1.95 13.93 3.7 5.3 1.25 9.3 3.14 11.95 5.67a12.88 12.88 0 0 1 3.94 9.61c0 5.06-1.9 9.2-5.67 12.42-3.75 3.2-9.57 4.78-17.44 4.78-8.03 0-13.97-1.68-17.81-5.06a16.64 16.64 0 0 1-5.72-12.98h13.54ZM83 309.21c35.99-4.23 64-34.73 64-71.84 0-40.01-32.47-72.37-72.62-72.37-40.15 0-72.62 32.36-72.62 72.37 0 35.87 26.15 65.54 60.48 71.22v40.73H0V370h145.24v-20.68H82.99v-40.1Z"/></svg>